<mxfile host="app.diagrams.net" modified="2021-12-22T10:37:02.924Z" agent="5.0 (Macintosh; Intel Mac OS X 10_15_7) AppleWebKit/537.36 (KHTML, like Gecko) Chrome/96.0.4664.93 Safari/537.36" etag="lJz2ezQjuV_4LpeCTvR7" version="16.0.3" type="github">
  <diagram id="qffT36ghJf8w43PBpfuD" name="Page-1">
    <mxGraphModel dx="1985" dy="691" grid="1" gridSize="10" guides="1" tooltips="1" connect="1" arrows="1" fold="1" page="1" pageScale="1" pageWidth="850" pageHeight="1100" math="0" shadow="0">
      <root>
        <mxCell id="0" />
        <mxCell id="1" parent="0" />
        <mxCell id="V-UfMb08Sihv8kzXOCyC-6" style="edgeStyle=orthogonalEdgeStyle;rounded=0;orthogonalLoop=1;jettySize=auto;html=1;entryX=0.5;entryY=0;entryDx=0;entryDy=0;" edge="1" parent="1" source="V-UfMb08Sihv8kzXOCyC-1" target="V-UfMb08Sihv8kzXOCyC-2">
          <mxGeometry relative="1" as="geometry" />
        </mxCell>
        <mxCell id="V-UfMb08Sihv8kzXOCyC-1" value="PDP" style="rounded=0;whiteSpace=wrap;html=1;" vertex="1" parent="1">
          <mxGeometry x="-350" y="250" width="120" height="60" as="geometry" />
        </mxCell>
        <mxCell id="V-UfMb08Sihv8kzXOCyC-2" value="item bass" style="rounded=0;whiteSpace=wrap;html=1;" vertex="1" parent="1">
          <mxGeometry x="-350" y="400" width="120" height="60" as="geometry" />
        </mxCell>
        <mxCell id="V-UfMb08Sihv8kzXOCyC-3" value="SPM" style="rounded=0;whiteSpace=wrap;html=1;" vertex="1" parent="1">
          <mxGeometry x="-360" y="530" width="120" height="60" as="geometry" />
        </mxCell>
        <mxCell id="V-UfMb08Sihv8kzXOCyC-4" value="SPL" style="rounded=0;whiteSpace=wrap;html=1;" vertex="1" parent="1">
          <mxGeometry x="-360" y="630" width="120" height="60" as="geometry" />
        </mxCell>
        <mxCell id="V-UfMb08Sihv8kzXOCyC-7" style="edgeStyle=orthogonalEdgeStyle;rounded=0;orthogonalLoop=1;jettySize=auto;html=1;entryX=0.5;entryY=0;entryDx=0;entryDy=0;" edge="1" parent="1" source="V-UfMb08Sihv8kzXOCyC-5" target="V-UfMb08Sihv8kzXOCyC-2">
          <mxGeometry relative="1" as="geometry">
            <Array as="points">
              <mxPoint x="-90" y="340" />
              <mxPoint x="-290" y="340" />
            </Array>
          </mxGeometry>
        </mxCell>
        <mxCell id="V-UfMb08Sihv8kzXOCyC-5" value="financial circle" style="rounded=0;whiteSpace=wrap;html=1;" vertex="1" parent="1">
          <mxGeometry x="-150" y="260" width="120" height="60" as="geometry" />
        </mxCell>
        <mxCell id="V-UfMb08Sihv8kzXOCyC-8" value="加到购物车" style="rounded=0;whiteSpace=wrap;html=1;" vertex="1" parent="1">
          <mxGeometry x="305" y="810" width="120" height="60" as="geometry" />
        </mxCell>
        <mxCell id="V-UfMb08Sihv8kzXOCyC-9" value="" style="endArrow=classic;html=1;rounded=0;entryX=0;entryY=0.5;entryDx=0;entryDy=0;exitX=1;exitY=0.5;exitDx=0;exitDy=0;" edge="1" parent="1" source="V-UfMb08Sihv8kzXOCyC-10" target="V-UfMb08Sihv8kzXOCyC-8">
          <mxGeometry width="50" height="50" relative="1" as="geometry">
            <mxPoint x="170" y="840" as="sourcePoint" />
            <mxPoint x="150" y="800" as="targetPoint" />
          </mxGeometry>
        </mxCell>
        <mxCell id="V-UfMb08Sihv8kzXOCyC-23" style="edgeStyle=orthogonalEdgeStyle;rounded=0;orthogonalLoop=1;jettySize=auto;html=1;entryX=0;entryY=0.5;entryDx=0;entryDy=0;dashed=1;" edge="1" parent="1" target="V-UfMb08Sihv8kzXOCyC-12">
          <mxGeometry relative="1" as="geometry">
            <mxPoint x="-180" y="850" as="sourcePoint" />
          </mxGeometry>
        </mxCell>
        <mxCell id="V-UfMb08Sihv8kzXOCyC-24" style="edgeStyle=orthogonalEdgeStyle;rounded=0;orthogonalLoop=1;jettySize=auto;html=1;dashed=1;entryX=0;entryY=0.5;entryDx=0;entryDy=0;" edge="1" parent="1" target="V-UfMb08Sihv8kzXOCyC-10">
          <mxGeometry relative="1" as="geometry">
            <mxPoint x="-150" y="760" as="targetPoint" />
            <mxPoint x="-200" y="800" as="sourcePoint" />
          </mxGeometry>
        </mxCell>
        <mxCell id="V-UfMb08Sihv8kzXOCyC-10" value="NORMAL用户&lt;br&gt;&lt;br&gt;商品价格 &amp;lt; 限定最小价格" style="rounded=0;whiteSpace=wrap;html=1;" vertex="1" parent="1">
          <mxGeometry x="-10" y="810" width="120" height="60" as="geometry" />
        </mxCell>
        <mxCell id="V-UfMb08Sihv8kzXOCyC-11" value="" style="endArrow=classic;html=1;rounded=0;exitX=1;exitY=0.5;exitDx=0;exitDy=0;edgeStyle=orthogonalEdgeStyle;curved=1;entryX=0.5;entryY=0;entryDx=0;entryDy=0;" edge="1" parent="1" source="V-UfMb08Sihv8kzXOCyC-8" target="V-UfMb08Sihv8kzXOCyC-8">
          <mxGeometry width="50" height="50" relative="1" as="geometry">
            <mxPoint x="540" y="850" as="sourcePoint" />
            <mxPoint x="460" y="720" as="targetPoint" />
            <Array as="points">
              <mxPoint x="460" y="720" />
            </Array>
          </mxGeometry>
        </mxCell>
        <mxCell id="V-UfMb08Sihv8kzXOCyC-13" style="rounded=0;orthogonalLoop=1;jettySize=auto;html=1;entryX=0;entryY=0.5;entryDx=0;entryDy=0;" edge="1" parent="1" source="V-UfMb08Sihv8kzXOCyC-12" target="V-UfMb08Sihv8kzXOCyC-14">
          <mxGeometry relative="1" as="geometry">
            <mxPoint x="260" y="960" as="targetPoint" />
          </mxGeometry>
        </mxCell>
        <mxCell id="V-UfMb08Sihv8kzXOCyC-18" style="edgeStyle=orthogonalEdgeStyle;curved=1;rounded=0;orthogonalLoop=1;jettySize=auto;html=1;entryX=0.5;entryY=0;entryDx=0;entryDy=0;" edge="1" parent="1" source="V-UfMb08Sihv8kzXOCyC-12" target="V-UfMb08Sihv8kzXOCyC-17">
          <mxGeometry relative="1" as="geometry" />
        </mxCell>
        <mxCell id="V-UfMb08Sihv8kzXOCyC-12" value="NORMAL用户&lt;br&gt;&lt;br&gt;商品价格 &amp;gt;= 限定最小价格" style="rounded=0;whiteSpace=wrap;html=1;" vertex="1" parent="1">
          <mxGeometry x="-10" y="970" width="120" height="60" as="geometry" />
        </mxCell>
        <mxCell id="V-UfMb08Sihv8kzXOCyC-14" value="根据用户查风控利率和分期" style="rounded=0;whiteSpace=wrap;html=1;" vertex="1" parent="1">
          <mxGeometry x="290" y="930" width="120" height="60" as="geometry" />
        </mxCell>
        <mxCell id="V-UfMb08Sihv8kzXOCyC-15" value="匹配规则" style="rounded=0;whiteSpace=wrap;html=1;" vertex="1" parent="1">
          <mxGeometry x="290" y="1010" width="120" height="60" as="geometry" />
        </mxCell>
        <mxCell id="V-UfMb08Sihv8kzXOCyC-16" style="rounded=0;orthogonalLoop=1;jettySize=auto;html=1;entryX=0;entryY=0.5;entryDx=0;entryDy=0;exitX=1;exitY=0.5;exitDx=0;exitDy=0;" edge="1" parent="1" source="V-UfMb08Sihv8kzXOCyC-12" target="V-UfMb08Sihv8kzXOCyC-15">
          <mxGeometry relative="1" as="geometry">
            <mxPoint x="300" y="970" as="targetPoint" />
            <mxPoint x="130" y="970" as="sourcePoint" />
          </mxGeometry>
        </mxCell>
        <mxCell id="V-UfMb08Sihv8kzXOCyC-20" style="edgeStyle=orthogonalEdgeStyle;rounded=0;orthogonalLoop=1;jettySize=auto;html=1;entryX=0;entryY=0.5;entryDx=0;entryDy=0;dashed=1;" edge="1" parent="1" source="V-UfMb08Sihv8kzXOCyC-17" target="V-UfMb08Sihv8kzXOCyC-19">
          <mxGeometry relative="1" as="geometry" />
        </mxCell>
        <mxCell id="V-UfMb08Sihv8kzXOCyC-21" value="点击跳转" style="edgeLabel;html=1;align=center;verticalAlign=middle;resizable=0;points=[];" vertex="1" connectable="0" parent="V-UfMb08Sihv8kzXOCyC-20">
          <mxGeometry x="-0.2316" y="1" relative="1" as="geometry">
            <mxPoint as="offset" />
          </mxGeometry>
        </mxCell>
        <mxCell id="V-UfMb08Sihv8kzXOCyC-17" value="返回显示推荐分期" style="rounded=0;whiteSpace=wrap;html=1;" vertex="1" parent="1">
          <mxGeometry x="-10" y="1190" width="120" height="60" as="geometry" />
        </mxCell>
        <mxCell id="V-UfMb08Sihv8kzXOCyC-19" value="调用Calculate重算" style="rounded=0;whiteSpace=wrap;html=1;" vertex="1" parent="1">
          <mxGeometry x="180" y="1350" width="120" height="60" as="geometry" />
        </mxCell>
        <mxCell id="V-UfMb08Sihv8kzXOCyC-22" value="调用Calculate重算" style="rounded=0;whiteSpace=wrap;html=1;" vertex="1" parent="1">
          <mxGeometry x="550" y="1230" width="120" height="60" as="geometry" />
        </mxCell>
        <mxCell id="V-UfMb08Sihv8kzXOCyC-26" style="edgeStyle=orthogonalEdgeStyle;rounded=0;orthogonalLoop=1;jettySize=auto;html=1;entryX=0.5;entryY=0;entryDx=0;entryDy=0;" edge="1" parent="1" source="V-UfMb08Sihv8kzXOCyC-25" target="V-UfMb08Sihv8kzXOCyC-27">
          <mxGeometry relative="1" as="geometry">
            <mxPoint x="680" y="400" as="targetPoint" />
          </mxGeometry>
        </mxCell>
        <mxCell id="V-UfMb08Sihv8kzXOCyC-25" value="搜索页" style="rounded=0;whiteSpace=wrap;html=1;" vertex="1" parent="1">
          <mxGeometry x="620" y="220" width="120" height="60" as="geometry" />
        </mxCell>
        <mxCell id="V-UfMb08Sihv8kzXOCyC-29" style="edgeStyle=orthogonalEdgeStyle;rounded=0;orthogonalLoop=1;jettySize=auto;html=1;entryX=0.5;entryY=0;entryDx=0;entryDy=0;" edge="1" parent="1" source="V-UfMb08Sihv8kzXOCyC-27" target="V-UfMb08Sihv8kzXOCyC-28">
          <mxGeometry relative="1" as="geometry" />
        </mxCell>
        <mxCell id="V-UfMb08Sihv8kzXOCyC-27" value="Item Bass" style="rounded=0;whiteSpace=wrap;html=1;" vertex="1" parent="1">
          <mxGeometry x="620" y="330" width="120" height="60" as="geometry" />
        </mxCell>
        <mxCell id="V-UfMb08Sihv8kzXOCyC-31" style="edgeStyle=orthogonalEdgeStyle;rounded=0;orthogonalLoop=1;jettySize=auto;html=1;entryX=0.5;entryY=0;entryDx=0;entryDy=0;" edge="1" parent="1" source="V-UfMb08Sihv8kzXOCyC-28" target="V-UfMb08Sihv8kzXOCyC-30">
          <mxGeometry relative="1" as="geometry" />
        </mxCell>
        <mxCell id="V-UfMb08Sihv8kzXOCyC-36" value="hit general" style="edgeLabel;html=1;align=center;verticalAlign=middle;resizable=0;points=[];" vertex="1" connectable="0" parent="V-UfMb08Sihv8kzXOCyC-31">
          <mxGeometry x="-0.3666" y="-2" relative="1" as="geometry">
            <mxPoint as="offset" />
          </mxGeometry>
        </mxCell>
        <mxCell id="V-UfMb08Sihv8kzXOCyC-28" value="ItemBass &lt;br&gt;Sync Rules(shopid, categoryID, itemID)" style="rounded=0;whiteSpace=wrap;html=1;" vertex="1" parent="1">
          <mxGeometry x="620" y="440" width="120" height="60" as="geometry" />
        </mxCell>
        <mxCell id="V-UfMb08Sihv8kzXOCyC-32" style="edgeStyle=orthogonalEdgeStyle;rounded=0;orthogonalLoop=1;jettySize=auto;html=1;entryX=0;entryY=0.5;entryDx=0;entryDy=0;exitX=1;exitY=0.5;exitDx=0;exitDy=0;" edge="1" parent="1" source="V-UfMb08Sihv8kzXOCyC-37" target="V-UfMb08Sihv8kzXOCyC-33">
          <mxGeometry relative="1" as="geometry">
            <mxPoint x="870" y="280" as="targetPoint" />
          </mxGeometry>
        </mxCell>
        <mxCell id="V-UfMb08Sihv8kzXOCyC-38" style="edgeStyle=orthogonalEdgeStyle;rounded=0;orthogonalLoop=1;jettySize=auto;html=1;entryX=0.5;entryY=0;entryDx=0;entryDy=0;" edge="1" parent="1" source="V-UfMb08Sihv8kzXOCyC-30" target="V-UfMb08Sihv8kzXOCyC-37">
          <mxGeometry relative="1" as="geometry" />
        </mxCell>
        <mxCell id="V-UfMb08Sihv8kzXOCyC-30" value="pricing::&lt;br&gt;&lt;br&gt;QueryProductCardInfo" style="rounded=0;whiteSpace=wrap;html=1;" vertex="1" parent="1">
          <mxGeometry x="620" y="560" width="120" height="60" as="geometry" />
        </mxCell>
        <mxCell id="V-UfMb08Sihv8kzXOCyC-33" value="详情页(PDP)" style="rounded=0;whiteSpace=wrap;html=1;" vertex="1" parent="1">
          <mxGeometry x="780" y="220" width="120" height="60" as="geometry" />
        </mxCell>
        <mxCell id="V-UfMb08Sihv8kzXOCyC-34" value="搜索页" style="rounded=0;whiteSpace=wrap;html=1;" vertex="1" parent="1">
          <mxGeometry x="1100" y="210" width="120" height="60" as="geometry" />
        </mxCell>
        <mxCell id="V-UfMb08Sihv8kzXOCyC-37" value="Return Hit Max Term" style="rounded=0;whiteSpace=wrap;html=1;" vertex="1" parent="1">
          <mxGeometry x="620" y="650" width="120" height="60" as="geometry" />
        </mxCell>
        <mxCell id="V-UfMb08Sihv8kzXOCyC-40" style="rounded=0;orthogonalLoop=1;jettySize=auto;html=1;entryX=0;entryY=0.5;entryDx=0;entryDy=0;exitX=1;exitY=0.5;exitDx=0;exitDy=0;" edge="1" parent="1" source="V-UfMb08Sihv8kzXOCyC-39" target="V-UfMb08Sihv8kzXOCyC-41">
          <mxGeometry relative="1" as="geometry">
            <mxPoint x="860" y="770" as="targetPoint" />
          </mxGeometry>
        </mxCell>
        <mxCell id="V-UfMb08Sihv8kzXOCyC-39" value="item" style="rounded=0;whiteSpace=wrap;html=1;" vertex="1" parent="1">
          <mxGeometry x="650" y="820" width="120" height="60" as="geometry" />
        </mxCell>
        <mxCell id="V-UfMb08Sihv8kzXOCyC-41" value="ItemID" style="rounded=0;whiteSpace=wrap;html=1;" vertex="1" parent="1">
          <mxGeometry x="940" y="700" width="120" height="60" as="geometry" />
        </mxCell>
        <mxCell id="V-UfMb08Sihv8kzXOCyC-42" value="ShopeID" style="rounded=0;whiteSpace=wrap;html=1;" vertex="1" parent="1">
          <mxGeometry x="940" y="780" width="120" height="60" as="geometry" />
        </mxCell>
        <mxCell id="V-UfMb08Sihv8kzXOCyC-43" value="CategoryID(顶级)" style="rounded=0;whiteSpace=wrap;html=1;" vertex="1" parent="1">
          <mxGeometry x="950" y="880" width="120" height="60" as="geometry" />
        </mxCell>
        <mxCell id="V-UfMb08Sihv8kzXOCyC-44" style="rounded=0;orthogonalLoop=1;jettySize=auto;html=1;entryX=0;entryY=0.5;entryDx=0;entryDy=0;exitX=1;exitY=0.5;exitDx=0;exitDy=0;" edge="1" parent="1" source="V-UfMb08Sihv8kzXOCyC-39" target="V-UfMb08Sihv8kzXOCyC-42">
          <mxGeometry relative="1" as="geometry">
            <mxPoint x="950" y="740" as="targetPoint" />
            <mxPoint x="777.5" y="830" as="sourcePoint" />
          </mxGeometry>
        </mxCell>
        <mxCell id="V-UfMb08Sihv8kzXOCyC-45" style="rounded=0;orthogonalLoop=1;jettySize=auto;html=1;entryX=0;entryY=0.5;entryDx=0;entryDy=0;exitX=1;exitY=0.5;exitDx=0;exitDy=0;" edge="1" parent="1" source="V-UfMb08Sihv8kzXOCyC-39" target="V-UfMb08Sihv8kzXOCyC-43">
          <mxGeometry relative="1" as="geometry">
            <mxPoint x="950" y="820" as="targetPoint" />
            <mxPoint x="780" y="860" as="sourcePoint" />
          </mxGeometry>
        </mxCell>
      </root>
    </mxGraphModel>
  </diagram>
</mxfile>
